<?xml version="1.0" encoding="UTF-8"?>
<svg width="210mm" height="297mm" version="1.1" viewBox="0 0 210 297" xmlns="http://www.w3.org/2000/svg" xmlns:cc="http://creativecommons.org/ns#" xmlns:dc="http://purl.org/dc/elements/1.1/" xmlns:rdf="http://www.w3.org/1999/02/22-rdf-syntax-ns#"><metadata><rdf:RDF><cc:Work rdf:about=""><dc:format>image/svg+xml</dc:format><dc:type rdf:resource="http://purl.org/dc/dcmitype/StillImage"/><dc:title/></cc:Work></rdf:RDF></metadata><g><g fill="#4295c2"><rect x="60.823" y="59.369" width="96.353" height="29.934"/><rect x="61.204" y="60.077" width="95.336" height="28.374"/></g><g transform="translate(-.73343 -42.783)" fill="#fff"><path d="m62.051 126.84v-24.018h25.132v5.7914h-20.766v6.6526l6.8227 0.0308v2.9464l-6.7719-0.0308v8.6278z" style="font-variant-caps:normal;font-variant-east-asian:normal;font-variant-ligatures:normal;font-variant-numeric:normal"/><path d="m75.94 127.45c-1.8965 0-3.4036-0.46567-4.5212-1.397-1.1176-0.94827-1.6849-2.2267-1.7018-3.8354h3.175c0 0.762 0.27093 1.3631 0.8128 1.8034 0.5588 0.42333 1.3123 0.635 2.2606 0.635 0.9144 0 1.6256-0.21166 2.1336-0.635 0.52493-0.42334 0.7874-1.0075 0.7874-1.7526 0-0.62653-0.18627-1.1684-0.5588-1.6256-0.37253-0.4572-0.889-0.77894-1.5494-0.9652l-2.1336-0.5842c-1.4563-0.37254-2.5823-1.0414-3.3782-2.0066-0.77893-0.9652-1.1684-2.1336-1.1684-3.5052 0-1.0499 0.23707-1.9643 0.7112-2.7432 0.47413-0.77894 1.143-1.3801 2.0066-1.8034 0.88053-0.42334 1.9135-0.635 3.0988-0.635 1.7949 0 3.2173 0.46567 4.2672 1.397 1.0499 0.9144 1.5833 2.1505 1.6002 3.7084h-3.175c0-0.72814-0.23707-1.2954-0.7112-1.7018-0.47413-0.42333-1.143-0.635-2.0066-0.635-0.84667 0-1.4986 0.2032-1.9558 0.6096-0.44027 0.38946-0.6604 0.93133-0.6604 1.6256 0 0.64347 0.16933 1.1938 0.508 1.651 0.3556 0.44027 0.8636 0.75353 1.524 0.9398l2.2098 0.6096c1.4732 0.37253 2.5993 1.0414 3.3782 2.0066 0.77893 0.94826 1.1684 2.1251 1.1684 3.5306 0 1.0499-0.254 1.9812-0.762 2.794-0.508 0.79586-1.2277 1.4139-2.159 1.8542-0.9144 0.44026-1.9812 0.6604-3.2004 0.6604z" style="font-variant-caps:normal;font-variant-east-asian:normal;font-variant-ligatures:normal;font-variant-numeric:normal"/><path d="m85.118 126.84v-18.227h-4.8514v-5.7914h43.075v5.7914h-35.023v18.227z" style="font-variant-caps:normal;font-variant-east-asian:normal;font-variant-ligatures:normal;font-variant-numeric:normal"/><path d="m90.835 126.84 4.6736-18.542h4.0894l4.699 18.542h-3.2512l-1.016-4.4958h-4.9276l-1.016 4.4958zm4.8514-7.0866h3.7592l-1.1176-4.9784c-0.18627-0.82973-0.34713-1.5748-0.4826-2.2352-0.13547-0.67733-0.2286-1.1684-0.2794-1.4732-0.0508 0.3048-0.14393 0.79587-0.2794 1.4732-0.13547 0.6604-0.29633 1.397-0.4826 2.2098z" style="font-variant-caps:normal;font-variant-east-asian:normal;font-variant-ligatures:normal;font-variant-numeric:normal"/><path d="m107.14 126.84v-18.542h5.6896c1.7949 0 3.2173 0.4318 4.2672 1.2954 1.0499 0.84667 1.5748 2.0066 1.5748 3.4798 0 1.1007-0.32174 2.0066-0.9652 2.7178-0.62654 0.7112-1.4393 1.1515-2.4384 1.3208 1.1176 0.13546 2.032 0.59266 2.7432 1.3716 0.72813 0.762 1.0922 1.7865 1.0922 3.0734 0 1.6087-0.54187 2.8956-1.6256 3.8608-1.0668 0.94827-2.5231 1.4224-4.3688 1.4224zm3.0988-10.897h2.54c0.82973 0 1.4901-0.22014 1.9812-0.6604 0.49106-0.4572 0.7366-1.0753 0.7366-1.8542 0-0.762-0.24554-1.3631-0.7366-1.8034-0.47414-0.4572-1.1345-0.6858-1.9812-0.6858h-2.54zm0 8.255h2.667c0.93133 0 1.6595-0.24553 2.1844-0.7366 0.54186-0.508 0.8128-1.1938 0.8128-2.0574s-0.27094-1.5579-0.8128-2.0828c-0.52494-0.54187-1.2531-0.8128-2.1844-0.8128h-2.667z" style="font-variant-caps:normal;font-variant-east-asian:normal;font-variant-ligatures:normal;font-variant-numeric:normal"/><path d="m121.84 126.84v-24.018h22.095v5.7914h-18.356v6.6526l4.0467 0.0157v2.9464l-3.9959-0.0157v8.6278z" style="font-variant-caps:normal;font-variant-east-asian:normal;font-variant-ligatures:normal;font-variant-numeric:normal"/><path d="m132.07 126.84v-18.542h3.7592l1.8288 5.8928c0.16934 0.59267 0.3048 1.1345 0.4064 1.6256 0.11854 0.47413 0.19474 0.82973 0.2286 1.0668 0.0339-0.23707 0.1016-0.59267 0.2032-1.0668 0.11854-0.49107 0.27094-1.0329 0.4572-1.6256l1.7526-5.8928h3.7592v18.542h-2.9718v-5.7658c0-0.84667 0.017-1.7695 0.0508-2.7686 0.0508-0.99907 0.11007-1.9981 0.1778-2.9972 0.0677-0.99907-0.0133-0.51616 0.0545-1.4136 0.0847-0.89746-0.0311-1.3006 0.0366-1.978l-2.9443 15.076-1.3648-0.01-2.8854-14.953c0.0847 0.64347 0.0143 0.43432 0.099 1.3148 0.0847 0.8636 2e-3 0.83697 0.0702 1.836 0.0677 0.99906 0.127 2.0066 0.1778 3.0226 0.0508 0.99907 0.0493 1.9562 0.0762 2.8702v5.7658z" style="font-variant-caps:normal;font-variant-east-asian:normal;font-variant-ligatures:normal;font-variant-numeric:normal"/><path d="m148.78 126.84v-18.227h-5.0924v-5.7914h13.483v5.7914h-5.1294v18.227z" style="font-variant-caps:normal;font-variant-east-asian:normal;font-variant-ligatures:normal;font-variant-numeric:normal"/><path d="m62.051 126.71h95.122v4.4587h-95.122z"/><path d="m66.416 105.81h6.1605v2.7951h-6.1605z"/><path d="m75.726 108.29h19.783v0.31519h-19.783z"/><path d="m125.58 108.29h6.484v0.31519h-6.484z"/><path d="m144.37 108.27h10.673v0.3614h-10.673z"/><path d="m77.688 107.44h18.137v3.4484h-18.137z"/><path d="m143.55 107.44h13.619v3.4484h-13.619z"/><path d="m122.41 107.44h10.642v3.4484h-10.642z"/></g></g></svg>
