<?xml version="1.0" encoding="UTF-8"?>
<svg width="152.25mm" height="152.25mm" version="1.1" viewBox="0 0 152.25 152.25" xmlns="http://www.w3.org/2000/svg" xmlns:cc="http://creativecommons.org/ns#" xmlns:dc="http://purl.org/dc/elements/1.1/" xmlns:rdf="http://www.w3.org/1999/02/22-rdf-syntax-ns#"><metadata><rdf:RDF><cc:Work rdf:about=""><dc:format>image/svg+xml</dc:format><dc:type rdf:resource="http://purl.org/dc/dcmitype/StillImage"/><dc:title/></cc:Work></rdf:RDF></metadata><g transform="translate(-36.78 -37.078)"><circle cx="112.9" cy="113.2" r="76.125" fill="#c13c3c"/><rect x="108.66" y="43.745" width="8.1079" height="70.699"/><circle cx="113.19" cy="112.46" r="65.888" fill="none" stroke="#000" stroke-linecap="round" stroke-width="10.886"/><rect x="57.195" y="88.865" width="8.9803" height=".057752" fill="none" stroke="#000" stroke-linecap="round" stroke-width="7.6177"/><g transform="matrix(1.2522 0 0 1.2784 -35.716 -48.389)" style="shape-inside:url(#rect884);white-space:pre" aria-label="S"><path d="m98.099 126.8c-3.7931 0-7.6308-0.67955-9.866-2.5422 1.4625-10.117-7.019-9.8724-7.0529-13.09l8.5154 2.9727c0 1.524 1.5005 5.2632 2.5842 6.1437 1.1176 0.84667 3.9735 0.92755 5.8701 0.92755 1.8288 0 3.2512-0.42333 4.2672-1.27 1.0499-0.84667 1.5748-2.0151 1.5748-3.5052 0-1.2531-0.37253-2.3368-1.1176-3.2512s-1.778-1.5579-3.0988-1.9304l-4.2672-1.1684c-2.9125-0.74507-5.1647-2.0828-6.7564-4.0132-1.5579-1.9304-2.3368-4.2672-2.3368-7.0104 0-2.0997 0.47413-3.9285 1.4224-5.4864s2.286-2.7601 4.0132-3.6068c1.7611-0.84667 3.8269-1.27 6.1976-1.27 3.5899 0 6.4347 0.93133 8.5344 2.794-0.13935 6.6318 6.0806 10.417 6.1145 13.533l-9.2641-6.1162c0-1.4563-0.47413-2.5908-1.4224-3.4036-0.94827-0.84667-2.286-1.27-4.0132-1.27-1.6933 0-2.9972 0.4064-3.9116 1.2192-0.88053 0.77893-1.3208 1.8627-1.3208 3.2512 0 1.2869 0.33867 2.3876 1.016 3.302 0.7112 0.88053 1.7272 1.5071 3.048 1.8796l4.4196 1.2192c2.9464 0.74507 5.1985 2.0828 6.7564 4.0132 1.5579 1.8965 2.3368 4.2503 2.3368 7.0612 0 2.0997-0.508 3.9624-1.524 5.588-1.016 1.5917-2.0179 3.0092-3.8806 3.8897-1.8288 0.88053-4.3998 1.1395-6.8382 1.1395z" style="font-variant-caps:normal;font-variant-east-asian:normal;font-variant-ligatures:normal;font-variant-numeric:normal"/></g><path d="m125.41 81.715 13.144-30.815 26.598 15.99c26.303 20.701-0.81932 47.929-0.81932 47.929l-27.216-0.55048 3.0201-19.67-10.039 0.30068-3.2776 19.11-8.2118 1.1966z"/><g fill="#c13c3c"><path d="m151.63 74.953c18.611 2.5972 2.6242 12.732 2.6242 12.732z"/><path d="m154.96 92.914c22.723 5.3783 1.8212 17.083 1.8212 17.083z"/><path d="m140.01 88.17c0.0854-33.298-10.041 0.35645-10.041 0.35645z"/></g><g><path d="m48.698 117.04 29.759 0.48748 1.7725 4.0533-24.161 4.7875 2.5507 8.5844 13.066-3.9022 3.2135 7.8688-9.9861 5.5127 17.628 15.529 20.276-39.657 9.4015 17.149 8.2615-16.538 21.718 40.675 12.211-10.652-0.36832-27.816-20.306 0.24886 0.25248-5.8189 46.022-0.96291-6.0432 6.8277-14.043-0.29189 0.57878 25.863-5.1609 16.323-19.094 5.2136-17.142-33.484-6.502 29.519-8.5502-29.989-18.799 33.181-18.315-10.775-20.317-35.86z"/><rect x="49.187" y="113.05" width="130.82" height="4.5483"/><rect x="84.236" y="48.911" width="57.978" height="5.5412" ry=".06275"/></g><circle cx="102.54" cy="131.35" r="1.8998" fill="#fff"/><circle cx="121.02" cy="131" r="1.8998" fill="#fff"/></g></svg>
