<svg width="16" height="16" xmlns="http://www.w3.org/2000/svg" version="1.2" baseProfile="tiny"><path fill="#006" d="M3 1h1v1H3z"/><g fill="#0f0"><path d="M4 3h4v1H4zM12 3h2v2h-2zM3 4h2v1H3zM7 4h3v1H7z"/><path d="M11 4h3v1h-3zM2 5h2v1H2zM10 5h2v1h-2zM13 5h1v7h-1zM2 6h1v3H2zM10 8h2v1h-2zM9 9h1v1H9zM11 9h1v2h-1zM5 10h4v1H5z"/><path d="M12 11h2v1h-2z"/></g><g fill="#090"><path d="M5 4h2v1H5zM7 5h3v3H7zM12 5h1v6h-1zM3 6h1v3H3z"/><path d="M10 6h3v2h-3zM4 8h3v1H4zM8 8h2v1H8zM7 9h2v1H7z"/></g><g fill="#fff"><path d="M4 5h3v1H4zM4 6h1v2H4zM6 6h1v2H6z"/><path d="M5 7h2v1H5z"/></g><path fill="#222" d="M5 6h1v1H5z"/><path fill="#0d0" d="M4 10h1v1H4z"/><g fill="#009"><path d="M1 0h1v1H1zM8 0h3v1H8zM14 0h1v3h-1zM2 1h1v2H2zM9 1h1v1H9z"/><path d="M1 2h2v1H1zM0 4h1v1H0zM1 5h1v1H1zM0 6h1v1H0z"/></g><g fill="#00d"><path d="M6 0h1v1H6zM1 1h1v1H1zM13 1h1v1h-1zM3 2h1v1H3zM15 2h1v1h-1zM0 5h1v1H0z"/></g><g fill="#040"><path d="M7 8h1v1H7zM3 9h4v1H3z"/></g><g fill="#002"><path d="M1 11h1v5H1zM4 12h1v3H4zM7 12h1v4H7zM10 12h1v4h-1zM13 12h1v4h-1z"/><path d="M3 14h2v1H3zM14 14h1v2h-1zM2 15h2v1H2zM8 15h1v1H8z"/></g><g fill="#004"><path d="M0 0h1v4H0zM2 0h4v1H2zM7 0h1v3H7zM11 0h3v1h-3zM15 0h1v2h-1z"/><path d="M4 1h5v2H4zM10 1h3v2h-3z"/><path d="M9 2h5v1H9zM1 3h3v1H1zM8 3h4v1H8zM14 3h2v11h-2zM1 4h2v1H1zM10 4h1v1h-1zM1 6h1v5H1z"/><path d="M0 7h2v4H0zM2 9h1v6H2zM10 9h1v3h-1zM3 10h1v4H3z"/><path d="M9 10h2v2H9zM0 11h1v5H0z"/><path d="M4 11h8v1H4zM5 12h2v4H5zM8 12h2v3H8zM11 12h2v4h-2zM15 14h1v2h-1z"/><path d="M4 15h3v1H4zM9 15h1v1H9z"/></g></svg>